<svg xmlns="http://www.w3.org/2000/svg" width="285" height="285" viewBox="0 0 285 285">
  <defs>
    <style>
      .cls-1 {
        fill: #ff3b0d;
        fill-rule: evenodd;
      }
    </style>
  </defs>
  <path class="cls-1" d="M310.5,78A142.5,142.5,0,1,1,168,220.5,142.5,142.5,0,0,1,310.5,78Zm47.121,144.838q-4.725-6.108-14.257-8.39,12.138-6.194,10.672-21.022a20.767,20.767,0,0,0-2.973-9.325,18.667,18.667,0,0,0-6.724-6.354,36.963,36.963,0,0,0-9.206-3.667,72.524,72.524,0,0,0-11.406-1.833V151.715H311.18v19.961q-3.258,0-9.939.163V151.715H288.694v20.532q-2.69.081-7.9,0.082l-17.272-.082v13.361h9.043q6.192,0,7.251,5.54v23.384a8.307,8.307,0,0,1,1.3.082h-1.3v32.751q-0.651,4.153-4.725,4.155h-9.043l-2.526,14.91h16.3q1.548,0,4.481.039t4.4,0.04v20.776h12.549V266.753q3.421,0.084,9.939.082v20.45h12.547V266.509a97.684,97.684,0,0,0,11.853-1.221,48.28,48.28,0,0,0,9.9-2.813,26.724,26.724,0,0,0,7.9-4.766,22.513,22.513,0,0,0,5.256-7.251,30.806,30.806,0,0,0,2.646-10.186Q362.349,228.952,357.621,222.838ZM301.485,186.5q0.57,0,3.218-.041t4.4-.082q1.752-.039,4.726.205a44.97,44.97,0,0,1,5.011.651,27.855,27.855,0,0,1,4.48,1.345,12.173,12.173,0,0,1,3.911,2.28,11.334,11.334,0,0,1,2.483,3.423,10.66,10.66,0,0,1,1.021,4.765,11.323,11.323,0,0,1-.734,4.157,7.812,7.812,0,0,1-2.2,3.136,22.381,22.381,0,0,1-3.016,2.2,13.822,13.822,0,0,1-3.951,1.506q-2.4.572-4.195,0.9a34.216,34.216,0,0,1-4.481.449q-2.69.121-4.074,0.163t-3.789,0q-2.4-.042-2.811-0.041V186.5h0Zm34.261,55.483a11.556,11.556,0,0,1-2,3.261,11.328,11.328,0,0,1-3.218,2.442,27.752,27.752,0,0,1-3.871,1.711,31.278,31.278,0,0,1-4.52,1.142q-2.652.489-4.647,0.692t-4.766.326q-2.769.12-4.318,0.121t-3.911-.041q-2.364-.038-3.015-0.039V224.061q0.651,0,3.87-.082t5.255-.08q2.037,0,5.624.244a47.887,47.887,0,0,1,6.029.732,39.676,39.676,0,0,1,5.336,1.507,15.458,15.458,0,0,1,4.684,2.485,12.2,12.2,0,0,1,3.015,3.748A11.646,11.646,0,0,1,335.746,241.985Z" transform="translate(-168 -78)"/>
</svg>
